<?xml version="1.0" encoding="UTF-8"?>
<svg id="Capa_1" xmlns="http://www.w3.org/2000/svg" version="1.1" viewBox="0 0 658.49 658.49">
  <!-- Generator: Adobe Illustrator 30.0.0, SVG Export Plug-In . SVG Version: 2.1.1 Build 123)  -->
  <rect id="FONDO" x="-637" y="-637.22" width="1920" height="1920" display="none" fill="#002c80"/>
  <g id="ICONO">
    <circle cx="329.24" cy="329.24" r="329.24" fill="#fff"/>
    <path d="M212.92,234.88c-6,.93-11.99,1.86-17.99,2.79-7.74,1.2-15.56,2.4-23.37,1.84s-15.73-3.05-21.47-8.37c-8.72-8.08-10.9-21.43-8.31-33.03,1.94-8.67,6.38-16.95,13.32-22.48s16.51-8.03,25.03-5.5c2.05.61,4.24,1.5,6.26.79,1.83-.63,2.99-2.4,4.08-4,10.44-15.31,28.21-25.92,46.74-25.82,18.53.1,36.98,11.89,43.08,29.38.71,2.04,1.33,4.24,2.91,5.71,1.27,1.18,2.98,1.71,4.6,2.31,16.26,6.03,28.07,23.14,26.74,40.43s-16.53,32.79-33.86,33.31c-1.52,17.08-1.55,34.3-.09,51.39-23.48-7.37-48.8-8.82-72.97-4.17,23.19.7,47.48,2.29,67.27,14.4-1.71-1.05-5.08-1.12-7.05-1.51-2.46-.48-4.93-.91-7.4-1.29-4.95-.77-9.93-1.35-14.92-1.74-9.99-.79-20.04-.82-30.03-.11s-19.93,2.17-29.71,4.38c-1.2.27-6.04,2.02-6.63,1.15-.32-.48.41-3.06.49-3.7.17-1.34.32-2.68.47-4.03.55-5.17.93-10.36,1.13-15.55.51-13.3-.16-26.64-1.99-39.82,8.72,13.25,9.7,29.95,10.42,45.8,26.1-12.45,57.59-13.02,84.12-1.53-2.42-14.49-2.73-29.33-.92-43.91-7.83,1.13-15.97.08-23.26-3.01,12.9.12,26.65-1.77,36.49-10.1,7.36-6.23,11.76-15.81,11.7-25.45,3.29,11.5-1.66,24.86-11.65,31.44,14.46-3.14,24.06-19.55,21.04-34.04s-17.07-25.43-31.85-26.29c-10.71-.63-21.08,3.3-31.54,5.65s-22.39,2.85-30.93-3.65c19.96,4.39,39.42-9.43,59.83-10.4-3.84-14.76-18.8-25.18-34.05-25.83s-30.07,7.38-39.81,19.12c-3.53,4.25-6.55,9.18-7.17,14.67-.64,5.67,1.33,11.28,3.28,16.64-5.78-4.64-9.42-11.84-9.74-19.24-.06-1.39-.03-2.86-.76-4.04-.59-.95-1.59-1.55-2.61-2.01-5.76-2.6-12.77-1.31-18.01,2.23s-8.88,9.03-11.4,14.82c-4.11,9.43-5.3,21.06.51,29.55,5.3,7.75,15.2,11.09,24.58,11.61s18.73-1.26,28.11-1.37c2.92-.03,6.18.25,8.12,2.43-.27.04-.54.08-.81.12h0Z" fill="#06276f" stroke="#002c80" stroke-miterlimit="10"/>
    <rect x="343.47" y="343.28" width="174.19" height="174.17" rx="30.96" ry="30.96" fill="#002c80"/>
    <rect x="140.58" y="343.28" width="174.19" height="174.17" rx="30.96" ry="30.96" fill="#002c80"/>
    <rect x="343.47" y="141.04" width="174.19" height="174.17" rx="30.96" ry="30.96" fill="#002c80"/>
  </g>
</svg>